HIERARCHY
ROOT Hips
{
	OFFSET 0.000000 0.000000 0.000000 
	CHANNELS 6 Xposition Yposition Zposition Yrotation Zrotation Xrotation 
	JOINT Lumbar
	{
		OFFSET 0.000000 0.000000 0.000000 
		CHANNELS 3 Zrotation Xrotation Yrotation
		JOINT Neck
		{
			OFFSET 0.000000 0.445665 0.000000 
			CHANNELS 3 Zrotation Xrotation Yrotation
			End Site
			{
				OFFSET 0.000000 0.227535 0.000000 
			}
		}
		JOINT RightShoulder
		{
			OFFSET 0.019635 0.377685 0.194865 
			CHANNELS 3 Zrotation Xrotation Yrotation
			JOINT RightElbow
			{
				OFFSET 0.000000 -0.243375 0.000000 
				CHANNELS 2 Zrotation Yrotation
				JOINT RightWrist
				{
					OFFSET 0.000000 -0.264825 0.000000 
					CHANNELS 2 Zrotation Xrotation
					End Site
					{
						OFFSET 0.006600 -0.176220 0.000990 
					}
				}
			}
		}
		JOINT LeftShoulder
		{
			OFFSET 0.019635 0.377685 -0.194865 
			CHANNELS 3 Zrotation Xrotation Yrotation
			JOINT LeftElbow
			{
				OFFSET 0.000000 -0.243375 0.000000 
				CHANNELS 2 Zrotation Yrotation
				JOINT LeftWrist
				{
					OFFSET 0.000000 -0.264825 0.000000 
					CHANNELS 2 Zrotation Xrotation
					End Site
					{
						OFFSET 0.006600 -0.176220 -0.000990 
					}
				}
			}
		}
	}
	JOINT RightHip
	{
		OFFSET 0.052140 -0.069960 0.075570 
		CHANNELS 3 Zrotation Xrotation Yrotation
		JOINT RightKnee
		{
			OFFSET 0.000000 -0.402270 0.000000 
			CHANNELS 1 Zrotation
			JOINT RightAnkle
			{
				OFFSET 0.000000 -0.404085 0.000000 
				CHANNELS 3 Zrotation Xrotation Yrotation
				End Site
				{
					OFFSET 0.204105 -0.089430 0.008415 
				}
			}
		}
	}
	JOINT LeftHip
	{
		OFFSET 0.052140 -0.069960 -0.075570 
		CHANNELS 3 Zrotation Xrotation Yrotation
		JOINT LeftKnee
		{
			OFFSET 0.000000 -0.402270 0.000000 
			CHANNELS 1 Zrotation
			JOINT LeftAnkle
			{
				OFFSET 0.000000 -0.404085 0.000000 
				CHANNELS 3 Zrotation Xrotation Yrotation
				End Site
				{
					OFFSET 0.204105 -0.089430 -0.008415 
				}
			}
		}
	}
}
MOTION
Frames: 14
Frame Time: 0.02
-0.00013 5e-05 0.0001 18.48153 -33.88982 -2.05154 57.46705 -0.14816 0.41225 -10.88243 -0.61055 0.72415 133.14151 -84.9288 -66.21841 9.2024 87.79178 -0.45351 -7.08287 169.87074 81.94974 62.01527 7.65955 -138.51415 -9.4271 10.91086 49.72035 -0.24498 -3.91221 -19.29065 -8.59521 -5.54407 -3.73635 53.95734 0.15138 0.0447 -24.56727 -9.20738 5.47164 3.75576
-4e-05 6e-05 0.00015 18.54412 -33.88966 -2.05258 57.46924 -0.15407 0.39152 -10.9243 -0.60247 0.72574 133.4491 -84.92593 -66.01849 9.1915 87.80221 -0.42839 -7.06159 169.86797 81.92254 62.52872 7.64132 -132.01918 -8.23481 10.66928 49.702 -0.29471 -4.19138 -19.2858 -8.56754 -5.53101 -3.72532 53.95447 0.20822 0.32162 -24.56724 -9.17832 5.45658 3.73977
6e-05 7e-05 0.0002 18.60656 -33.88948 -2.05361 57.47141 -0.15996 0.37089 -10.96609 -0.59443 0.72732 133.75583 -84.92307 -65.81909 9.18062 87.81264 -0.40333 -7.04039 169.8652 81.89545 63.04112 7.62308 -125.54421 -7.04611 10.42839 49.68367 -0.34435 -4.46998 -19.28094 -8.53994 -5.51798 -3.71431 53.95158 0.26495 0.59802 -24.5672 -9.14929 5.44154 3.72382
0.00016 8e-05 0.00024 18.66896 -33.88931 -2.05465 57.4736 -0.16585 0.35023 -11.00784 -0.58638 0.72891 134.06254 -84.9202 -65.61972 9.16976 87.82304 -0.37829 -7.01918 169.86244 81.86833 63.55308 7.60489 -119.06925 -5.85747 10.18754 49.66537 -0.39394 -4.74834 -19.2761 -8.51235 -5.50496 -3.70331 53.94872 0.32162 0.87414 -24.56717 -9.12031 5.42653 3.70788
0.00025 9e-05 0.00029 18.7315 -33.88918 -2.0557 57.47579 -0.17176 0.32949 -11.04967 -0.57828 0.73049 134.3699 -84.91732 -65.42002 9.15888 87.83342 -0.35317 -6.9979 169.85966 81.84109 64.06586 7.58675 -112.5743 -4.66528 9.94605 49.64707 -0.4436 -5.02713 -19.27125 -8.48471 -5.49192 -3.69229 53.94588 0.37838 1.15066 -24.56713 -9.0913 5.41151 3.69192
0.00035 0.0001 0.00034 18.79372 -33.8889 -2.05669 57.47794 -0.1776 0.30908 -11.09136 -0.57037 0.73207 134.6752 -84.91451 -65.22135 9.148 87.84395 -0.32826 -6.97688 169.85688 81.81433 64.5774 7.56829 -106.14169 -3.484 9.70643 49.62866 -0.49318 -5.3053 -19.26639 -8.45718 -5.47892 -3.68131 53.94286 0.43504 1.42682 -24.5671 -9.06225 5.39641 3.67598
0.00045 0.0001 0.00039 18.85652 -33.88891 -2.0578 57.48017 -0.18358 0.288 -11.13328 -0.5621 0.73367 134.98473 -84.91155 -65.02044 9.13715 87.85419 -0.30296 -6.95535 169.85417 81.7866 65.09096 7.55049 -99.59112 -2.28211 9.46329 49.6105 -0.54288 -5.58447 -19.26156 -8.42945 -5.46585 -3.67027 53.94022 0.49182 1.70332 -24.56706 -9.03333 5.38151 3.66003
0.00055 0.00011 0.00043 18.91877 -33.88865 -2.0588 57.48232 -0.18942 0.26756 -11.17499 -0.55416 0.73525 135.28958 -84.90875 -64.82228 9.12627 87.86464 -0.27803 -6.93428 169.85128 81.75985 65.6025 7.53211 -93.14863 -1.09914 9.22341 49.59212 -0.59246 -5.86262 -19.25671 -8.40191 -5.45284 -3.65928 53.93724 0.54852 1.97967 -24.56703 -9.00427 5.36641 3.64408
0.00064 0.00012 0.00048 18.98043 -33.88805 -2.05966 57.4844 -0.19511 0.24782 -11.21646 -0.54664 0.73681 135.59197 -84.90607 -64.62468 9.11534 87.87561 -0.25348 -6.91383 169.84862 81.73396 66.11249 7.51289 -86.83831 0.06087 8.98735 49.57341 -0.64197 -6.14008 -19.2518 -8.37458 -5.43991 -3.64834 53.93381 0.60503 2.25535 -24.567 -8.97507 5.35109 3.62815
0.00074 0.00013 0.00053 19.04576 -33.88938 -2.06133 57.48696 -0.20174 0.22384 -11.25938 -0.53671 0.73847 135.91834 -84.90247 -64.41542 9.10464 87.88436 -0.22652 -6.88996 169.84599 81.70211 66.63418 7.49809 -79.76751 1.3535 8.72883 49.5564 -0.6921 -6.42319 -19.24714 -8.34597 -5.42655 -3.63707 53.93287 0.66238 2.53346 -24.56693 -8.94677 5.33712 3.61214
0.00083 0.00014 0.00057 19.10314 -33.88666 -2.06126 57.48847 -0.20634 0.20892 -11.29917 -0.53186 0.73994 136.18778 -84.90094 -64.23619 9.0935 87.89732 -0.2048 -6.87322 169.84242 81.68344 67.12933 7.47422 -74.30168 2.3659 8.51802 49.53594 -0.74076 -6.69327 -19.24199 -8.3201 -5.41409 -3.62653 53.92671 0.71811 2.80727 -24.56696 -8.91653 5.32025 3.59627
0.00091 0.00014 0.00057 19.14028 -33.87262 -2.05658 57.48742 -0.20573 0.21811 -11.33099 -0.54114 0.74077 136.34677 -84.90403 -64.09914 9.0808 87.92571 -0.1966 -6.87684 169.8404 81.69659 67.56732 7.42301 -73.27835 2.60518 8.43674 49.50473 -0.78669 -6.93642 -19.23524 -8.30148 -5.40399 -3.61779 53.9057 0.76788 3.06216 -24.56719 -8.88123 5.29577 3.58114
0.00098 0.00015 0.00056 19.16911 -33.85453 -2.05013 57.48522 -0.20301 0.23655 -11.35951 -0.55545 0.74144 136.4367 -84.90934 -64.00211 9.0677 87.95762 -0.19395 -6.88747 169.83453 81.72394 67.97643 7.36312 -73.85997 2.56348 8.40361 49.47027 -0.8309 -7.16492 -19.22807 -8.28566 -5.39479 -3.60982 53.87954 0.81621 3.31364 -24.56755 -8.84397 5.26835 3.5661
0.00105 0.00015 0.00056 19.20076 -33.83847 -2.04441 57.48338 -0.20103 0.25122 -11.38918 -0.56731 0.74228 136.53272 -84.91437 -63.91002 9.05507 87.98538 -0.1892 -6.89431 169.83045 81.74738 68.38764 7.30882 -73.68148 2.65353 8.34938 49.43812 -0.87502 -7.39429 -19.22125 -8.26874 -5.38523 -3.60163 53.85606 0.86627 3.57186 -24.5679 -8.80736 5.24202 3.55076
